<svg width="106" height="82" viewBox="0 0 106 82" fill="none" xmlns="http://www.w3.org/2000/svg">
<path d="M14.2499 13.8363C24.186 0.688641 43.8283 -2.60225 60.4414 1.90984C25.3914 2.49665 7.38268 42.0825 26.906 54.5482C26.906 54.5482 8.77834 52.7402 6.9624 38.1969C5.15439 23.6456 14.2499 13.8363 14.2499 13.8363Z" fill="url(#paint0_linear_127_3)"/>
<path d="M14.2499 13.8364C14.2499 13.8364 5.15439 23.6457 6.9624 38.189C8.77834 52.7324 26.906 54.5404 26.906 54.5404C21.2123 50.9006 18.7144 44.9611 18.8968 38.3476C13.0446 34.1924 9.42858 20.5134 14.2499 13.8364Z" fill="url(#paint1_linear_127_3)"/>
<path d="M76.2218 15.2795C61.6071 2.35383 35.6606 24.0499 30.4824 35.231C43.3129 15.2557 73.7081 25.0649 74.7152 38.1888C81.7331 28.9426 76.2218 15.2795 76.2218 15.2795Z" fill="url(#paint2_linear_127_3)"/>
<path d="M76.2208 15.2796C70.5272 10.2441 63.1207 10.4741 55.8887 13.2733C68.3385 10.0141 73.6595 22.0199 69.3694 29.5295C72.4541 31.9561 74.4683 34.9694 74.7221 38.1889C81.7321 28.9427 76.2208 15.2796 76.2208 15.2796Z" fill="url(#paint3_linear_127_3)"/>
<path d="M15.248 69.0044C22.718 76.5854 33.0902 81.2878 44.5727 81.2878C67.3076 81.2878 85.7365 62.8588 85.7365 40.1239C85.7365 38.3238 85.6097 36.5555 85.3876 34.8109C55.2859 62.0183 24.3674 67.8388 15.248 69.0044Z" fill="white"/>
<path d="M17.3652 68.3463C24.3832 75.4673 34.129 79.8842 44.9215 79.8842C66.2845 79.8842 83.6033 62.5654 83.6033 41.2024C83.6033 39.5133 83.4844 37.848 83.2703 36.2145C54.9924 61.7803 25.9453 67.2519 17.3652 68.3463Z" fill="white"/>
<path d="M85.7286 40.1159C85.7286 38.3158 85.6017 36.5474 85.3797 34.8029C55.2859 62.0181 24.3674 67.8386 15.248 69.0043C17.1829 70.9709 19.3161 72.7393 21.6078 74.2856C34.5493 73.4133 66.7287 59.9881 85.4828 44.6042C85.6414 43.1292 85.7286 41.6305 85.7286 40.1159Z" fill="url(#paint4_linear_127_3)"/>
<path d="M105.76 25.4298L86.5855 26.0245L88.6552 31.0997L88.9724 31.8451C79.4407 38.744 68.3785 45.8413 59.4178 50.3851C32.5594 63.9927 7.27897 69.7101 2.97306 63.1363C1.49811 60.8842 2.75103 57.5537 6.24016 53.6046C0.91923 58.4973 -0.21474 62.8429 1.95011 66.2844C8.63498 76.9184 34.2563 72.7552 60.2583 59.5758C70.6385 54.3103 82.7553 47.11 92.1046 39.1564L94.6422 45.0879L105.76 25.4298Z" fill="white"/>
<path d="M69.314 11.7191C72.256 12.298 75.991 14.5818 75.4518 18.1344C75.3328 18.9274 75.2932 19.7283 74.9998 20.4816C66.7686 41.5037 35.4536 58.2039 18.6423 47.9586C9.97493 42.6852 5.03463 25.4298 14.2491 13.8364C0.728719 29.1807 1.9975 49.4811 9.32468 58.0453C18.3885 68.6317 52.5741 56.1739 84.7931 34.4699C84.7931 28.1974 79.9956 13.8047 69.314 11.7191Z" fill="url(#paint5_linear_127_3)"/>
<defs>
<linearGradient id="paint0_linear_127_3" x1="4.23062" y1="3.38926e-07" x2="70.266" y2="44.1599" gradientUnits="userSpaceOnUse">
<stop stop-color="#D33D35"/>
<stop offset="1" stop-color="#FB8459"/>
</linearGradient>
<linearGradient id="paint1_linear_127_3" x1="5.78762" y1="13.8364" x2="38.0361" y2="24.6943" gradientUnits="userSpaceOnUse">
<stop stop-color="#D33D35"/>
<stop offset="1" stop-color="#FB8459"/>
</linearGradient>
<linearGradient id="paint2_linear_127_3" x1="28.2633" y1="11.2946" x2="62.8789" y2="53.0711" gradientUnits="userSpaceOnUse">
<stop stop-color="#D33D35"/>
<stop offset="1" stop-color="#FB8459"/>
</linearGradient>
<linearGradient id="paint3_linear_127_3" x1="54.8491" y1="11.3002" x2="85.0327" y2="28.369" gradientUnits="userSpaceOnUse">
<stop stop-color="#D33D35"/>
<stop offset="1" stop-color="#FB8459"/>
</linearGradient>
<linearGradient id="paint4_linear_127_3" x1="11.9757" y1="34.8029" x2="62.7516" y2="96.3547" gradientUnits="userSpaceOnUse">
<stop stop-color="#D33D35"/>
<stop offset="1" stop-color="#FB8459"/>
</linearGradient>
<linearGradient id="paint5_linear_127_3" x1="0.152832" y1="11.7191" x2="65.5898" y2="83.3741" gradientUnits="userSpaceOnUse">
<stop stop-color="#D33D35"/>
<stop offset="1" stop-color="#FB8459"/>
</linearGradient>
</defs>
</svg>
